<svg width="435" height="439" viewBox="0 0 435 439" fill="none" xmlns="http://www.w3.org/2000/svg">
<path d="M233.211 137.328L233.393 138.865L234.145 137.512L299.118 20.6428L263.174 149.654L262.76 151.138L263.966 150.18L368.321 67.2915L286.182 172.613L285.242 173.819L286.713 173.401L414.569 137.12L298.735 202.708L297.411 203.458L298.922 203.64L430.812 219.5L298.922 235.36L297.411 235.542L298.735 236.292L414.569 301.88L286.713 265.599L285.242 265.181L286.182 266.387L368.321 371.708L263.966 288.82L262.76 287.862L263.174 289.346L299.118 418.357L234.145 301.488L233.393 300.135L233.211 301.672L217.5 434.736L201.789 301.672L201.607 300.135L200.855 301.488L135.882 418.357L171.826 289.346L172.24 287.862L171.034 288.82L66.6792 371.708L148.818 266.387L149.758 265.181L148.287 265.599L20.4305 301.88L136.265 236.292L137.589 235.542L136.078 235.36L4.1879 219.5L136.078 203.64L137.589 203.458L136.265 202.708L20.4305 137.12L148.287 173.401L149.758 173.819L148.818 172.613L66.6792 67.2915L171.034 150.18L172.24 151.138L171.826 149.654L135.882 20.6428L200.855 137.512L201.607 138.865L201.789 137.328L217.5 4.26414L233.211 137.328Z" fill="#1380CD" stroke="black"/>
</svg>
